<mxfile host="app.diagrams.net" modified="2024-02-06T18:37:09.204Z" agent="Mozilla/5.0 (X11; Linux x86_64) AppleWebKit/537.36 (KHTML, like Gecko) Chrome/121.0.0.0 Safari/537.36" etag="kAkkM3Gs8Et0rA6khKsO" version="22.1.21" type="device">
  <diagram name="Page-1" id="_Gakuy9Rwmy7J1l9Ox4a">
    <mxGraphModel dx="1876" dy="2289" grid="1" gridSize="10" guides="1" tooltips="1" connect="1" arrows="1" fold="1" page="1" pageScale="1" pageWidth="850" pageHeight="1100" math="0" shadow="0">
      <root>
        <mxCell id="0" />
        <mxCell id="1" parent="0" />
        <mxCell id="KyD_eOTLhy94dCNybC4f-15" style="edgeStyle=orthogonalEdgeStyle;rounded=0;orthogonalLoop=1;jettySize=auto;html=1;exitX=0.5;exitY=0;exitDx=0;exitDy=0;entryX=0.5;entryY=1;entryDx=0;entryDy=0;endArrow=none;endFill=0;" parent="1" source="5OxK8GY9uhZKVVhu8Ng6-3" target="KyD_eOTLhy94dCNybC4f-4" edge="1">
          <mxGeometry relative="1" as="geometry" />
        </mxCell>
        <mxCell id="nzbw7blMAr6pjb6i6NWN-11" style="edgeStyle=orthogonalEdgeStyle;rounded=0;orthogonalLoop=1;jettySize=auto;html=1;exitX=0.5;exitY=0;exitDx=0;exitDy=0;entryX=0.5;entryY=1;entryDx=0;entryDy=0;endArrow=none;endFill=0;" parent="1" source="5OxK8GY9uhZKVVhu8Ng6-3" target="nzbw7blMAr6pjb6i6NWN-8" edge="1">
          <mxGeometry relative="1" as="geometry">
            <Array as="points">
              <mxPoint x="190" y="870" />
              <mxPoint y="870" />
            </Array>
          </mxGeometry>
        </mxCell>
        <mxCell id="5OxK8GY9uhZKVVhu8Ng6-3" value="RSA" style="rounded=0;whiteSpace=wrap;html=1;verticalAlign=top;fontStyle=1" parent="1" vertex="1">
          <mxGeometry x="70" y="890" width="240" height="50" as="geometry" />
        </mxCell>
        <mxCell id="5OxK8GY9uhZKVVhu8Ng6-4" value="&lt;div style=&quot;font-size: 10px;&quot;&gt;&lt;i style=&quot;font-size: 10px;&quot;&gt;1977 &quot;A Method for Obtaining Digital&lt;/i&gt;&lt;/div&gt;&lt;div style=&quot;font-size: 10px;&quot;&gt;&lt;i style=&quot;font-size: 10px;&quot;&gt;Signatures and Public-Key Cryptosystems&quot;&lt;/i&gt;&lt;/div&gt;" style="text;html=1;strokeColor=none;fillColor=none;align=center;verticalAlign=middle;whiteSpace=wrap;rounded=0;fontSize=10;" parent="1" vertex="1">
          <mxGeometry x="87.5" y="910" width="205" height="30" as="geometry" />
        </mxCell>
        <mxCell id="bKiuF4yFzHOzXGZw1D5E-57" style="edgeStyle=orthogonalEdgeStyle;rounded=0;orthogonalLoop=1;jettySize=auto;html=1;exitX=1;exitY=0.5;exitDx=0;exitDy=0;entryX=0.5;entryY=1;entryDx=0;entryDy=0;endArrow=none;endFill=0;strokeWidth=2;dashed=1;" parent="1" source="5OxK8GY9uhZKVVhu8Ng6-5" target="5OxK8GY9uhZKVVhu8Ng6-4" edge="1">
          <mxGeometry relative="1" as="geometry">
            <mxPoint x="330" y="1090" as="sourcePoint" />
          </mxGeometry>
        </mxCell>
        <mxCell id="nzbw7blMAr6pjb6i6NWN-13" style="edgeStyle=orthogonalEdgeStyle;rounded=0;orthogonalLoop=1;jettySize=auto;html=1;exitX=0.5;exitY=0;exitDx=0;exitDy=0;entryX=0.5;entryY=1;entryDx=0;entryDy=0;dashed=1;strokeWidth=2;endArrow=none;endFill=0;" parent="1" source="5OxK8GY9uhZKVVhu8Ng6-5" target="nzbw7blMAr6pjb6i6NWN-8" edge="1">
          <mxGeometry relative="1" as="geometry">
            <Array as="points">
              <mxPoint x="-80" y="870" />
              <mxPoint y="870" />
            </Array>
          </mxGeometry>
        </mxCell>
        <mxCell id="CaObLDD9Qa8IoBOlciWS-10" style="edgeStyle=orthogonalEdgeStyle;rounded=0;orthogonalLoop=1;jettySize=auto;html=1;exitX=0;exitY=0.5;exitDx=0;exitDy=0;entryX=0.5;entryY=1;entryDx=0;entryDy=0;endArrow=none;endFill=0;" parent="1" source="5OxK8GY9uhZKVVhu8Ng6-5" target="CaObLDD9Qa8IoBOlciWS-2" edge="1">
          <mxGeometry relative="1" as="geometry" />
        </mxCell>
        <mxCell id="5OxK8GY9uhZKVVhu8Ng6-5" value="Diffie–Hellman–Merkle" style="rounded=0;whiteSpace=wrap;html=1;verticalAlign=top;fontStyle=1" parent="1" vertex="1">
          <mxGeometry x="-200" y="940" width="240" height="50" as="geometry" />
        </mxCell>
        <mxCell id="5OxK8GY9uhZKVVhu8Ng6-6" value="&lt;div style=&quot;font-size: 10px;&quot;&gt;&lt;i style=&quot;font-size: 10px;&quot;&gt;1976 &quot;New Directions in Cryptography&lt;/i&gt;&lt;i style=&quot;background-color: initial;&quot;&gt;&quot;&lt;/i&gt;&lt;/div&gt;" style="text;html=1;strokeColor=none;fillColor=none;align=center;verticalAlign=middle;whiteSpace=wrap;rounded=0;fontSize=10;" parent="1" vertex="1">
          <mxGeometry x="-190" y="960" width="220" height="30" as="geometry" />
        </mxCell>
        <mxCell id="5OxK8GY9uhZKVVhu8Ng6-11" style="edgeStyle=orthogonalEdgeStyle;rounded=0;orthogonalLoop=1;jettySize=auto;html=1;exitX=0.5;exitY=0;exitDx=0;exitDy=0;entryX=0.5;entryY=1;entryDx=0;entryDy=0;endArrow=none;endFill=0;" parent="1" source="5OxK8GY9uhZKVVhu8Ng6-7" target="5OxK8GY9uhZKVVhu8Ng6-6" edge="1">
          <mxGeometry relative="1" as="geometry" />
        </mxCell>
        <mxCell id="5OxK8GY9uhZKVVhu8Ng6-7" value="Discrete Logarithm Problem" style="rounded=0;whiteSpace=wrap;html=1;fontStyle=1" parent="1" vertex="1">
          <mxGeometry x="-200" y="1040" width="240" height="50" as="geometry" />
        </mxCell>
        <mxCell id="bKiuF4yFzHOzXGZw1D5E-45" style="edgeStyle=orthogonalEdgeStyle;rounded=0;orthogonalLoop=1;jettySize=auto;html=1;exitX=0.5;exitY=0;exitDx=0;exitDy=0;endArrow=none;endFill=0;" parent="1" source="5OxK8GY9uhZKVVhu8Ng6-8" target="5OxK8GY9uhZKVVhu8Ng6-4" edge="1">
          <mxGeometry relative="1" as="geometry" />
        </mxCell>
        <mxCell id="5OxK8GY9uhZKVVhu8Ng6-8" value="Integer Factorization Problem" style="rounded=0;whiteSpace=wrap;html=1;fontStyle=1" parent="1" vertex="1">
          <mxGeometry x="70" y="1040" width="240" height="50" as="geometry" />
        </mxCell>
        <mxCell id="s5rz5R7kNPWqgCDR-JUC-4" style="edgeStyle=orthogonalEdgeStyle;rounded=0;orthogonalLoop=1;jettySize=auto;html=1;exitX=0.5;exitY=0;exitDx=0;exitDy=0;entryX=0.5;entryY=1;entryDx=0;entryDy=0;endArrow=none;endFill=0;" edge="1" parent="1" source="KyD_eOTLhy94dCNybC4f-1" target="s5rz5R7kNPWqgCDR-JUC-3">
          <mxGeometry relative="1" as="geometry" />
        </mxCell>
        <mxCell id="KyD_eOTLhy94dCNybC4f-1" value="Zerocoin" style="rounded=0;whiteSpace=wrap;html=1;verticalAlign=top;fontStyle=1" parent="1" vertex="1">
          <mxGeometry x="-120" y="190" width="240" height="50" as="geometry" />
        </mxCell>
        <mxCell id="KyD_eOTLhy94dCNybC4f-2" value="&lt;div style=&quot;font-size: 10px;&quot;&gt;&lt;/div&gt;&lt;i&gt;2013 &quot;Zerocoin: Anonymous Distributed E-Cash from Bitcoin&quot;&lt;br&gt;&lt;/i&gt;" style="text;html=1;strokeColor=none;fillColor=none;align=center;verticalAlign=middle;whiteSpace=wrap;rounded=0;fontSize=10;" parent="1" vertex="1">
          <mxGeometry x="-120" y="210" width="240" height="30" as="geometry" />
        </mxCell>
        <mxCell id="KyD_eOTLhy94dCNybC4f-7" style="edgeStyle=orthogonalEdgeStyle;rounded=0;orthogonalLoop=1;jettySize=auto;html=1;exitX=0.5;exitY=0;exitDx=0;exitDy=0;entryX=0.5;entryY=1;entryDx=0;entryDy=0;endArrow=none;endFill=0;" parent="1" source="KyD_eOTLhy94dCNybC4f-3" target="KyD_eOTLhy94dCNybC4f-6" edge="1">
          <mxGeometry relative="1" as="geometry" />
        </mxCell>
        <mxCell id="KyD_eOTLhy94dCNybC4f-3" value="Blind Signatures" style="rounded=0;whiteSpace=wrap;html=1;verticalAlign=top;fontStyle=1" parent="1" vertex="1">
          <mxGeometry x="150" y="800" width="240" height="50" as="geometry" />
        </mxCell>
        <mxCell id="KyD_eOTLhy94dCNybC4f-4" value="&lt;div style=&quot;font-size: 10px;&quot;&gt;&lt;i&gt;1982 &quot;Blind signatures for untraceable payments&quot;&lt;/i&gt;&lt;/div&gt;" style="text;html=1;strokeColor=none;fillColor=none;align=center;verticalAlign=middle;whiteSpace=wrap;rounded=0;fontSize=10;" parent="1" vertex="1">
          <mxGeometry x="167.5" y="820" width="205" height="30" as="geometry" />
        </mxCell>
        <mxCell id="KyD_eOTLhy94dCNybC4f-19" style="edgeStyle=orthogonalEdgeStyle;rounded=0;orthogonalLoop=1;jettySize=auto;html=1;exitX=0.5;exitY=0;exitDx=0;exitDy=0;entryX=0.5;entryY=1;entryDx=0;entryDy=0;endArrow=none;endFill=0;" parent="1" source="KyD_eOTLhy94dCNybC4f-5" target="KyD_eOTLhy94dCNybC4f-18" edge="1">
          <mxGeometry relative="1" as="geometry" />
        </mxCell>
        <mxCell id="KyD_eOTLhy94dCNybC4f-5" value="Digicash" style="rounded=0;whiteSpace=wrap;html=1;verticalAlign=top;fontStyle=1" parent="1" vertex="1">
          <mxGeometry x="150" y="690" width="240" height="50" as="geometry" />
        </mxCell>
        <mxCell id="KyD_eOTLhy94dCNybC4f-6" value="&lt;div style=&quot;font-size: 10px;&quot;&gt;&lt;i&gt;1988 &quot;Untraceable Electronic Cash&quot;&lt;/i&gt;&lt;/div&gt;" style="text;html=1;strokeColor=none;fillColor=none;align=center;verticalAlign=middle;whiteSpace=wrap;rounded=0;fontSize=10;" parent="1" vertex="1">
          <mxGeometry x="167.5" y="710" width="205" height="30" as="geometry" />
        </mxCell>
        <mxCell id="PVdPPHzCQSvvqk6dLM3M-4" style="edgeStyle=orthogonalEdgeStyle;rounded=0;orthogonalLoop=1;jettySize=auto;html=1;exitX=0.5;exitY=0;exitDx=0;exitDy=0;entryX=0.5;entryY=1;entryDx=0;entryDy=0;endArrow=none;endFill=0;" parent="1" source="KyD_eOTLhy94dCNybC4f-17" target="PVdPPHzCQSvvqk6dLM3M-2" edge="1">
          <mxGeometry relative="1" as="geometry" />
        </mxCell>
        <mxCell id="KyD_eOTLhy94dCNybC4f-17" value="Signature-free e-Cash" style="rounded=0;whiteSpace=wrap;html=1;verticalAlign=top;fontStyle=1" parent="1" vertex="1">
          <mxGeometry x="150" y="440" width="240" height="50" as="geometry" />
        </mxCell>
        <mxCell id="KyD_eOTLhy94dCNybC4f-18" value="&lt;div style=&quot;&quot;&gt;1999 &quot;Auditable, Anonymous Electronic Cash&quot;&lt;/div&gt;" style="text;html=1;strokeColor=none;fillColor=none;align=center;verticalAlign=middle;whiteSpace=wrap;rounded=0;fontSize=10;fontStyle=2" parent="1" vertex="1">
          <mxGeometry x="150" y="460" width="240" height="30" as="geometry" />
        </mxCell>
        <mxCell id="nzbw7blMAr6pjb6i6NWN-12" style="edgeStyle=orthogonalEdgeStyle;rounded=0;orthogonalLoop=1;jettySize=auto;html=1;exitX=0.5;exitY=0;exitDx=0;exitDy=0;entryX=0.5;entryY=1;entryDx=0;entryDy=0;endArrow=none;endFill=0;" parent="1" source="nzbw7blMAr6pjb6i6NWN-3" target="KyD_eOTLhy94dCNybC4f-2" edge="1">
          <mxGeometry relative="1" as="geometry" />
        </mxCell>
        <mxCell id="nzbw7blMAr6pjb6i6NWN-3" value="Dynamic Accumulators with ZKP" style="rounded=0;whiteSpace=wrap;html=1;verticalAlign=top;fontStyle=1" parent="1" vertex="1">
          <mxGeometry x="-120" y="390" width="240" height="50" as="geometry" />
        </mxCell>
        <mxCell id="nzbw7blMAr6pjb6i6NWN-4" value="&lt;div style=&quot;font-size: 10px;&quot;&gt;&lt;span&gt;2002 &quot;&lt;/span&gt;Dynamic accumulators&amp;nbsp;&lt;span style=&quot;background-color: initial;&quot;&gt;and application to efficient revocation of anonymous credentials&quot;&lt;/span&gt;&lt;/div&gt;" style="text;html=1;strokeColor=none;fillColor=none;align=center;verticalAlign=middle;whiteSpace=wrap;rounded=0;fontSize=10;fontStyle=2" parent="1" vertex="1">
          <mxGeometry x="-120" y="410" width="240" height="30" as="geometry" />
        </mxCell>
        <mxCell id="nzbw7blMAr6pjb6i6NWN-10" style="edgeStyle=orthogonalEdgeStyle;rounded=0;orthogonalLoop=1;jettySize=auto;html=1;exitX=0.5;exitY=0;exitDx=0;exitDy=0;endArrow=none;endFill=0;" parent="1" source="nzbw7blMAr6pjb6i6NWN-5" target="nzbw7blMAr6pjb6i6NWN-4" edge="1">
          <mxGeometry relative="1" as="geometry" />
        </mxCell>
        <mxCell id="nzbw7blMAr6pjb6i6NWN-5" value="Collision-free Accumulators" style="rounded=0;whiteSpace=wrap;html=1;verticalAlign=top;fontStyle=1" parent="1" vertex="1">
          <mxGeometry x="-120" y="490" width="240" height="50" as="geometry" />
        </mxCell>
        <mxCell id="nzbw7blMAr6pjb6i6NWN-6" value="&lt;div style=&quot;font-size: 10px;&quot;&gt;&lt;span&gt;1997 &quot;&lt;/span&gt;Collision-free accumulators and ´&lt;/div&gt;&lt;div&gt;fail-stop signature schemes without trees&quot;&lt;/div&gt;" style="text;html=1;strokeColor=none;fillColor=none;align=center;verticalAlign=middle;whiteSpace=wrap;rounded=0;fontSize=10;fontStyle=2" parent="1" vertex="1">
          <mxGeometry x="-102.5" y="510" width="205" height="30" as="geometry" />
        </mxCell>
        <mxCell id="nzbw7blMAr6pjb6i6NWN-9" style="edgeStyle=orthogonalEdgeStyle;rounded=0;orthogonalLoop=1;jettySize=auto;html=1;exitX=0.5;exitY=0;exitDx=0;exitDy=0;entryX=0.5;entryY=1;entryDx=0;entryDy=0;endArrow=none;endFill=0;" parent="1" source="nzbw7blMAr6pjb6i6NWN-7" target="nzbw7blMAr6pjb6i6NWN-6" edge="1">
          <mxGeometry relative="1" as="geometry" />
        </mxCell>
        <mxCell id="nzbw7blMAr6pjb6i6NWN-7" value="One-Way Accumulators" style="rounded=0;whiteSpace=wrap;html=1;verticalAlign=top;fontStyle=1" parent="1" vertex="1">
          <mxGeometry x="-120" y="580" width="240" height="50" as="geometry" />
        </mxCell>
        <mxCell id="nzbw7blMAr6pjb6i6NWN-8" value="&lt;div style=&quot;font-size: 10px;&quot;&gt;&lt;span&gt;1993 &quot;&lt;/span&gt;One-way accumulators: a&lt;/div&gt;&lt;div&gt;decentralized alternative to digital signatures&quot;&lt;/div&gt;" style="text;html=1;strokeColor=none;fillColor=none;align=center;verticalAlign=middle;whiteSpace=wrap;rounded=0;fontSize=10;fontStyle=2" parent="1" vertex="1">
          <mxGeometry x="-102.5" y="600" width="205" height="30" as="geometry" />
        </mxCell>
        <mxCell id="nzbw7blMAr6pjb6i6NWN-14" value="One-Way Hash Functions" style="text;html=1;strokeColor=none;fillColor=none;align=center;verticalAlign=middle;whiteSpace=wrap;rounded=0;rotation=-90;" parent="1" vertex="1">
          <mxGeometry x="-102.5" y="750" width="170" height="30" as="geometry" />
        </mxCell>
        <mxCell id="nzbw7blMAr6pjb6i6NWN-15" value="Chaumian e-Cash" style="text;html=1;strokeColor=none;fillColor=none;align=center;verticalAlign=middle;whiteSpace=wrap;rounded=0;rotation=-90;" parent="1" vertex="1">
          <mxGeometry x="200" y="580" width="120" height="30" as="geometry" />
        </mxCell>
        <mxCell id="nzbw7blMAr6pjb6i6NWN-20" value="Accumulators" style="text;html=1;strokeColor=none;fillColor=none;align=center;verticalAlign=middle;whiteSpace=wrap;rounded=0;rotation=-90;" parent="1" vertex="1">
          <mxGeometry x="-102.5" y="310" width="170" height="30" as="geometry" />
        </mxCell>
        <mxCell id="PVdPPHzCQSvvqk6dLM3M-5" style="edgeStyle=orthogonalEdgeStyle;rounded=0;orthogonalLoop=1;jettySize=auto;html=1;exitX=0.5;exitY=0;exitDx=0;exitDy=0;entryX=0.5;entryY=1;entryDx=0;entryDy=0;endArrow=none;endFill=0;" parent="1" source="PVdPPHzCQSvvqk6dLM3M-1" target="KyD_eOTLhy94dCNybC4f-2" edge="1">
          <mxGeometry relative="1" as="geometry" />
        </mxCell>
        <mxCell id="PVdPPHzCQSvvqk6dLM3M-1" value="Bitcoin" style="rounded=0;whiteSpace=wrap;html=1;verticalAlign=top;fontStyle=1" parent="1" vertex="1">
          <mxGeometry x="150" y="320" width="240" height="50" as="geometry" />
        </mxCell>
        <mxCell id="PVdPPHzCQSvvqk6dLM3M-2" value="&lt;div style=&quot;font-size: 10px;&quot;&gt;&lt;/div&gt;&lt;i&gt;2008 &quot;Bitcoin: A Peer-to-Peer Electronic Cash System&quot;&lt;br&gt;&lt;/i&gt;" style="text;html=1;strokeColor=none;fillColor=none;align=center;verticalAlign=middle;whiteSpace=wrap;rounded=0;fontSize=10;" parent="1" vertex="1">
          <mxGeometry x="150" y="340" width="240" height="30" as="geometry" />
        </mxCell>
        <mxCell id="CaObLDD9Qa8IoBOlciWS-11" style="edgeStyle=orthogonalEdgeStyle;rounded=0;orthogonalLoop=1;jettySize=auto;html=1;exitX=0.5;exitY=0;exitDx=0;exitDy=0;entryX=0.5;entryY=1;entryDx=0;entryDy=0;endArrow=none;endFill=0;" parent="1" source="CaObLDD9Qa8IoBOlciWS-1" target="CaObLDD9Qa8IoBOlciWS-5" edge="1">
          <mxGeometry relative="1" as="geometry" />
        </mxCell>
        <mxCell id="CaObLDD9Qa8IoBOlciWS-1" value="ElGamal Signature Scheme" style="rounded=0;whiteSpace=wrap;html=1;verticalAlign=top;fontStyle=1" parent="1" vertex="1">
          <mxGeometry x="-440" y="790" width="240" height="50" as="geometry" />
        </mxCell>
        <mxCell id="CaObLDD9Qa8IoBOlciWS-2" value="1985 &quot;A Public Key Cryptosystem and a Signature Scheme Based on Discrete Logarithms&quot;" style="text;html=1;strokeColor=none;fillColor=none;align=center;verticalAlign=middle;whiteSpace=wrap;rounded=0;fontSize=10;fontStyle=2" parent="1" vertex="1">
          <mxGeometry x="-440" y="810" width="240" height="30" as="geometry" />
        </mxCell>
        <mxCell id="CaObLDD9Qa8IoBOlciWS-3" style="edgeStyle=orthogonalEdgeStyle;rounded=0;orthogonalLoop=1;jettySize=auto;html=1;exitX=0.5;exitY=0;exitDx=0;exitDy=0;entryX=0.5;entryY=1;entryDx=0;entryDy=0;endArrow=none;endFill=0;" parent="1" source="CaObLDD9Qa8IoBOlciWS-4" target="CaObLDD9Qa8IoBOlciWS-7" edge="1">
          <mxGeometry relative="1" as="geometry" />
        </mxCell>
        <mxCell id="CaObLDD9Qa8IoBOlciWS-4" value="Interactive Zero Knowledge Proofs" style="rounded=0;whiteSpace=wrap;html=1;verticalAlign=top;fontStyle=1" parent="1" vertex="1">
          <mxGeometry x="-440" y="730" width="240" height="50" as="geometry" />
        </mxCell>
        <mxCell id="CaObLDD9Qa8IoBOlciWS-19" style="edgeStyle=orthogonalEdgeStyle;rounded=0;orthogonalLoop=1;jettySize=auto;html=1;exitX=0;exitY=0.25;exitDx=0;exitDy=0;entryX=0.5;entryY=1;entryDx=0;entryDy=0;endArrow=none;endFill=0;" parent="1" source="CaObLDD9Qa8IoBOlciWS-5" target="CaObLDD9Qa8IoBOlciWS-18" edge="1">
          <mxGeometry relative="1" as="geometry" />
        </mxCell>
        <mxCell id="CaObLDD9Qa8IoBOlciWS-5" value="&lt;span style=&quot;background-color: initial;&quot;&gt;1985 &quot;The Knowledge Complexity of Interactive Proof-Systems&quot;&lt;br&gt;&lt;/span&gt;" style="text;html=1;strokeColor=none;fillColor=none;align=center;verticalAlign=middle;whiteSpace=wrap;rounded=0;fontSize=10;fontStyle=2" parent="1" vertex="1">
          <mxGeometry x="-440" y="750" width="240" height="30" as="geometry" />
        </mxCell>
        <mxCell id="CaObLDD9Qa8IoBOlciWS-12" style="edgeStyle=orthogonalEdgeStyle;rounded=0;orthogonalLoop=1;jettySize=auto;html=1;exitX=0.5;exitY=0;exitDx=0;exitDy=0;entryX=0.5;entryY=1;entryDx=0;entryDy=0;endArrow=none;endFill=0;" parent="1" source="CaObLDD9Qa8IoBOlciWS-6" target="CaObLDD9Qa8IoBOlciWS-9" edge="1">
          <mxGeometry relative="1" as="geometry" />
        </mxCell>
        <mxCell id="CaObLDD9Qa8IoBOlciWS-6" value="Non-Interactive Transformation" style="rounded=0;whiteSpace=wrap;html=1;verticalAlign=top;fontStyle=1" parent="1" vertex="1">
          <mxGeometry x="-440" y="670" width="240" height="50" as="geometry" />
        </mxCell>
        <mxCell id="CaObLDD9Qa8IoBOlciWS-7" value="&lt;span style=&quot;background-color: initial;&quot;&gt;1986 &quot;How to Prove Yourself: Practical Solutions to Identification and Signature Problems&quot;&lt;br&gt;&lt;/span&gt;" style="text;html=1;strokeColor=none;fillColor=none;align=center;verticalAlign=middle;whiteSpace=wrap;rounded=0;fontSize=10;fontStyle=2" parent="1" vertex="1">
          <mxGeometry x="-440" y="690" width="240" height="30" as="geometry" />
        </mxCell>
        <mxCell id="CaObLDD9Qa8IoBOlciWS-24" style="edgeStyle=orthogonalEdgeStyle;rounded=0;orthogonalLoop=1;jettySize=auto;html=1;exitX=0.5;exitY=0;exitDx=0;exitDy=0;entryX=0.5;entryY=1;entryDx=0;entryDy=0;endArrow=none;endFill=0;" parent="1" source="CaObLDD9Qa8IoBOlciWS-8" target="CaObLDD9Qa8IoBOlciWS-21" edge="1">
          <mxGeometry relative="1" as="geometry" />
        </mxCell>
        <mxCell id="CaObLDD9Qa8IoBOlciWS-8" value="Schnorr Signatures" style="rounded=0;whiteSpace=wrap;html=1;verticalAlign=top;fontStyle=1" parent="1" vertex="1">
          <mxGeometry x="-455" y="610" width="270" height="50" as="geometry" />
        </mxCell>
        <mxCell id="CaObLDD9Qa8IoBOlciWS-9" value="&lt;div style=&quot;font-size: 10px;&quot;&gt;&lt;/div&gt;&lt;i&gt;1989 &quot;Efficient identification and signatures for smart cards&quot;&lt;br&gt;1991 &quot;Efficient Signature Generation by Smart Cards&quot;&lt;br&gt;&lt;/i&gt;" style="text;html=1;strokeColor=none;fillColor=none;align=center;verticalAlign=middle;whiteSpace=wrap;rounded=0;fontSize=10;" parent="1" vertex="1">
          <mxGeometry x="-455" y="630" width="270" height="30" as="geometry" />
        </mxCell>
        <mxCell id="CaObLDD9Qa8IoBOlciWS-33" style="edgeStyle=orthogonalEdgeStyle;rounded=0;orthogonalLoop=1;jettySize=auto;html=1;exitX=0.5;exitY=0;exitDx=0;exitDy=0;endArrow=none;endFill=0;" parent="1" source="CaObLDD9Qa8IoBOlciWS-14" edge="1">
          <mxGeometry relative="1" as="geometry">
            <mxPoint y="240" as="targetPoint" />
            <Array as="points">
              <mxPoint x="-600" y="280" />
              <mxPoint x="1" y="280" />
            </Array>
          </mxGeometry>
        </mxCell>
        <mxCell id="CaObLDD9Qa8IoBOlciWS-14" value="Pedersen Commitment" style="rounded=0;whiteSpace=wrap;html=1;verticalAlign=top;fontStyle=1" parent="1" vertex="1">
          <mxGeometry x="-720" y="610" width="240" height="50" as="geometry" />
        </mxCell>
        <mxCell id="CaObLDD9Qa8IoBOlciWS-15" value="1991 &quot;Non-Interactive and Information-Theoretic Secure Verifiable Secret Sharing&quot;" style="text;html=1;strokeColor=none;fillColor=none;align=center;verticalAlign=middle;whiteSpace=wrap;rounded=0;fontSize=10;fontStyle=2" parent="1" vertex="1">
          <mxGeometry x="-720" y="630" width="240" height="30" as="geometry" />
        </mxCell>
        <mxCell id="CaObLDD9Qa8IoBOlciWS-16" style="edgeStyle=orthogonalEdgeStyle;rounded=0;orthogonalLoop=1;jettySize=auto;html=1;exitX=0.5;exitY=0;exitDx=0;exitDy=0;entryX=0.5;entryY=1;entryDx=0;entryDy=0;endArrow=none;endFill=0;" parent="1" source="CaObLDD9Qa8IoBOlciWS-17" target="CaObLDD9Qa8IoBOlciWS-15" edge="1">
          <mxGeometry relative="1" as="geometry" />
        </mxCell>
        <mxCell id="CaObLDD9Qa8IoBOlciWS-17" value=" Zero-Knowledge Blobs" style="rounded=0;whiteSpace=wrap;html=1;verticalAlign=top;fontStyle=1" parent="1" vertex="1">
          <mxGeometry x="-720" y="685" width="240" height="50" as="geometry" />
        </mxCell>
        <mxCell id="CaObLDD9Qa8IoBOlciWS-18" value="1987 &quot;A discrete logarithm implementation of perfect zero-knowledge blobs&quot;" style="text;html=1;strokeColor=none;fillColor=none;align=center;verticalAlign=middle;whiteSpace=wrap;rounded=0;fontSize=10;fontStyle=2" parent="1" vertex="1">
          <mxGeometry x="-720" y="705" width="240" height="30" as="geometry" />
        </mxCell>
        <mxCell id="CaObLDD9Qa8IoBOlciWS-27" style="edgeStyle=orthogonalEdgeStyle;rounded=0;orthogonalLoop=1;jettySize=auto;html=1;exitX=0.5;exitY=0;exitDx=0;exitDy=0;entryX=0.5;entryY=1;entryDx=0;entryDy=0;endArrow=none;endFill=0;" parent="1" source="CaObLDD9Qa8IoBOlciWS-20" target="CaObLDD9Qa8IoBOlciWS-26" edge="1">
          <mxGeometry relative="1" as="geometry" />
        </mxCell>
        <mxCell id="CaObLDD9Qa8IoBOlciWS-20" value="Witness Indistinguishable Signatures" style="rounded=0;whiteSpace=wrap;html=1;verticalAlign=top;fontStyle=1" parent="1" vertex="1">
          <mxGeometry x="-440" y="550" width="240" height="50" as="geometry" />
        </mxCell>
        <mxCell id="CaObLDD9Qa8IoBOlciWS-21" value="&lt;div style=&quot;font-size: 10px;&quot;&gt;&lt;/div&gt;&lt;i&gt;1994 &quot;Proofs of Partial Knowledge and Simplified&lt;div&gt;Design of Witness Hiding Protocols&quot;&lt;/div&gt;&lt;/i&gt;" style="text;html=1;strokeColor=none;fillColor=none;align=center;verticalAlign=middle;whiteSpace=wrap;rounded=0;fontSize=10;" parent="1" vertex="1">
          <mxGeometry x="-440" y="570" width="240" height="30" as="geometry" />
        </mxCell>
        <mxCell id="CaObLDD9Qa8IoBOlciWS-30" style="edgeStyle=orthogonalEdgeStyle;rounded=0;orthogonalLoop=1;jettySize=auto;html=1;exitX=0.5;exitY=0;exitDx=0;exitDy=0;entryX=1;entryY=1;entryDx=0;entryDy=0;endArrow=none;endFill=0;" parent="1" edge="1">
          <mxGeometry relative="1" as="geometry">
            <mxPoint x="-317" y="430" as="sourcePoint" />
            <mxPoint x="0.5" y="240" as="targetPoint" />
            <Array as="points">
              <mxPoint x="-320" y="430" />
              <mxPoint x="-320" y="280" />
              <mxPoint x="1" y="280" />
            </Array>
          </mxGeometry>
        </mxCell>
        <mxCell id="s5rz5R7kNPWqgCDR-JUC-13" style="edgeStyle=orthogonalEdgeStyle;rounded=0;orthogonalLoop=1;jettySize=auto;html=1;exitX=0.5;exitY=0;exitDx=0;exitDy=0;endArrow=none;endFill=0;" edge="1" parent="1" source="CaObLDD9Qa8IoBOlciWS-22">
          <mxGeometry relative="1" as="geometry">
            <mxPoint x="-320" y="190" as="targetPoint" />
          </mxGeometry>
        </mxCell>
        <mxCell id="CaObLDD9Qa8IoBOlciWS-22" value="" style="rounded=0;whiteSpace=wrap;html=1;verticalAlign=top;fontStyle=1" parent="1" vertex="1">
          <mxGeometry x="-440" y="430" width="240" height="50" as="geometry" />
        </mxCell>
        <mxCell id="CaObLDD9Qa8IoBOlciWS-23" value="&lt;div style=&quot;font-size: 10px;&quot;&gt;&lt;/div&gt;&lt;i&gt;1999 &quot;&lt;/i&gt;Proving in zero-knowledge that&lt;br&gt;a number n is the product of two safe primes&lt;span style=&quot;font-style: italic; background-color: initial;&quot;&gt;&quot;&lt;/span&gt;" style="text;html=1;strokeColor=none;fillColor=none;align=center;verticalAlign=middle;whiteSpace=wrap;rounded=0;fontSize=10;" parent="1" vertex="1">
          <mxGeometry x="-440" y="440" width="240" height="30" as="geometry" />
        </mxCell>
        <mxCell id="CaObLDD9Qa8IoBOlciWS-34" style="edgeStyle=orthogonalEdgeStyle;rounded=0;orthogonalLoop=1;jettySize=auto;html=1;exitX=0.5;exitY=0;exitDx=0;exitDy=0;entryX=0.5;entryY=1;entryDx=0;entryDy=0;endArrow=none;endFill=0;" parent="1" source="CaObLDD9Qa8IoBOlciWS-25" target="CaObLDD9Qa8IoBOlciWS-22" edge="1">
          <mxGeometry relative="1" as="geometry" />
        </mxCell>
        <mxCell id="CaObLDD9Qa8IoBOlciWS-25" value="" style="rounded=0;whiteSpace=wrap;html=1;verticalAlign=top;fontStyle=1" parent="1" vertex="1">
          <mxGeometry x="-440" y="490" width="240" height="50" as="geometry" />
        </mxCell>
        <mxCell id="CaObLDD9Qa8IoBOlciWS-26" value="&lt;div style=&quot;font-size: 10px;&quot;&gt;&lt;/div&gt;1997 &quot;Rapid demonstration of linear relations connected by boolean operators&quot;" style="text;html=1;strokeColor=none;fillColor=none;align=center;verticalAlign=middle;whiteSpace=wrap;rounded=0;fontSize=10;" parent="1" vertex="1">
          <mxGeometry x="-440" y="500" width="240" height="30" as="geometry" />
        </mxCell>
        <mxCell id="CaObLDD9Qa8IoBOlciWS-32" value="Zero Knowledge Proofs" style="text;html=1;strokeColor=none;fillColor=none;align=center;verticalAlign=middle;whiteSpace=wrap;rounded=0;rotation=-90;" parent="1" vertex="1">
          <mxGeometry x="-420" y="340" width="170" height="30" as="geometry" />
        </mxCell>
        <mxCell id="s5rz5R7kNPWqgCDR-JUC-8" style="edgeStyle=orthogonalEdgeStyle;rounded=0;orthogonalLoop=1;jettySize=auto;html=1;exitX=0.5;exitY=0;exitDx=0;exitDy=0;entryX=0.5;entryY=1;entryDx=0;entryDy=0;endArrow=none;endFill=0;" edge="1" parent="1" source="s5rz5R7kNPWqgCDR-JUC-2" target="s5rz5R7kNPWqgCDR-JUC-6">
          <mxGeometry relative="1" as="geometry" />
        </mxCell>
        <mxCell id="s5rz5R7kNPWqgCDR-JUC-2" value="Binary OOOMP" style="rounded=0;whiteSpace=wrap;html=1;verticalAlign=top;fontStyle=1" vertex="1" parent="1">
          <mxGeometry x="-120" y="100" width="240" height="50" as="geometry" />
        </mxCell>
        <mxCell id="s5rz5R7kNPWqgCDR-JUC-3" value="&lt;div style=&quot;font-size: 10px;&quot;&gt;&lt;/div&gt;&lt;i&gt;2015 &quot;&lt;/i&gt;One-out-of-many proofs: Or how to leak a secret and spend a coin&lt;i style=&quot;background-color: initial;&quot;&gt;&quot;&lt;/i&gt;" style="text;html=1;strokeColor=none;fillColor=none;align=center;verticalAlign=middle;whiteSpace=wrap;rounded=0;fontSize=10;" vertex="1" parent="1">
          <mxGeometry x="-120" y="120" width="240" height="30" as="geometry" />
        </mxCell>
        <mxCell id="s5rz5R7kNPWqgCDR-JUC-11" style="edgeStyle=orthogonalEdgeStyle;rounded=0;orthogonalLoop=1;jettySize=auto;html=1;exitX=0.5;exitY=0;exitDx=0;exitDy=0;entryX=0.5;entryY=1;entryDx=0;entryDy=0;endArrow=none;endFill=0;" edge="1" parent="1" source="s5rz5R7kNPWqgCDR-JUC-5" target="s5rz5R7kNPWqgCDR-JUC-9">
          <mxGeometry relative="1" as="geometry" />
        </mxCell>
        <mxCell id="s5rz5R7kNPWqgCDR-JUC-5" value="N-ary OOOMP" style="rounded=0;whiteSpace=wrap;html=1;verticalAlign=top;fontStyle=1" vertex="1" parent="1">
          <mxGeometry x="-120" y="30" width="240" height="50" as="geometry" />
        </mxCell>
        <mxCell id="s5rz5R7kNPWqgCDR-JUC-6" value="&lt;div style=&quot;font-size: 10px;&quot;&gt;&lt;/div&gt;&lt;i&gt;2015 &quot;&lt;/i&gt;Short accountable ring signatures based on DDH&lt;i style=&quot;background-color: initial;&quot;&gt;&quot;&lt;/i&gt;" style="text;html=1;strokeColor=none;fillColor=none;align=center;verticalAlign=middle;whiteSpace=wrap;rounded=0;fontSize=10;" vertex="1" parent="1">
          <mxGeometry x="-120" y="50" width="240" height="30" as="geometry" />
        </mxCell>
        <mxCell id="s5rz5R7kNPWqgCDR-JUC-9" value="Sigma" style="rounded=0;whiteSpace=wrap;html=1;verticalAlign=top;fontStyle=1" vertex="1" parent="1">
          <mxGeometry x="-120" y="-30" width="240" height="30" as="geometry" />
        </mxCell>
        <mxCell id="s5rz5R7kNPWqgCDR-JUC-17" style="edgeStyle=orthogonalEdgeStyle;rounded=0;orthogonalLoop=1;jettySize=auto;html=1;exitX=0.5;exitY=0;exitDx=0;exitDy=0;entryX=0.5;entryY=1;entryDx=0;entryDy=0;endArrow=none;endFill=0;" edge="1" parent="1" source="s5rz5R7kNPWqgCDR-JUC-14" target="s5rz5R7kNPWqgCDR-JUC-3">
          <mxGeometry relative="1" as="geometry" />
        </mxCell>
        <mxCell id="s5rz5R7kNPWqgCDR-JUC-14" value="Logarithmic Membership Proof" style="rounded=0;whiteSpace=wrap;html=1;verticalAlign=top;fontStyle=1" vertex="1" parent="1">
          <mxGeometry x="-440" y="190" width="240" height="50" as="geometry" />
        </mxCell>
        <mxCell id="s5rz5R7kNPWqgCDR-JUC-15" value="&lt;div style=&quot;font-size: 10px;&quot;&gt;&lt;/div&gt;&lt;i&gt;2013 &quot;&lt;/i&gt;&lt;i&gt;Zero-knowledge argument for polynomial&lt;/i&gt;&lt;div&gt;&lt;i&gt;evaluation with application to blacklists&quot;&lt;/i&gt;&lt;/div&gt;" style="text;html=1;strokeColor=none;fillColor=none;align=center;verticalAlign=middle;whiteSpace=wrap;rounded=0;fontSize=10;" vertex="1" parent="1">
          <mxGeometry x="-440" y="210" width="240" height="30" as="geometry" />
        </mxCell>
      </root>
    </mxGraphModel>
  </diagram>
</mxfile>
